<?xml version="1.0" encoding="utf-8"?>
<!-- Generator: Adobe Illustrator 18.1.1, SVG Export Plug-In . SVG Version: 6.00 Build 0)  -->
<svg version="1.1" id="Layer_1" xmlns:sketch="http://www.bohemiancoding.com/sketch/ns"
	 xmlns="http://www.w3.org/2000/svg" xmlns:xlink="http://www.w3.org/1999/xlink" x="0px" y="0px" viewBox="-456 258 46 46"
	 enable-background="new -456 258 46 46" xml:space="preserve">
<title>Twitter</title>
<desc>Created with Sketch.</desc>
<g id="Page-1" sketch:type="MSPage">
	<g id="Twitter" sketch:type="MSArtboardGroup">
		<g id="_x30_3-twitter" transform="translate(-1.000000, 4.000000)" sketch:type="MSLayerGroup">
			<path id="Shape" sketch:type="MSShapeGroup" fill="#FFFFFF" d="M-416.2,267.2c-1.2,0.5-2.5,0.9-3.8,1.1c1.4-0.8,2.4-2.1,2.9-3.7
				c-1.3,0.8-2.7,1.3-4.2,1.6c-1.2-1.3-2.9-2.1-4.8-2.1c-3.7,0-6.6,3-6.6,6.7c0,0.5,0.1,1,0.2,1.5c-5.5-0.3-10.4-3-13.7-7
				c-0.6,1-0.9,2.1-0.9,3.4c0,2.3,1.2,4.4,2.9,5.6c-1.1,0-2.1-0.3-3-0.8c0,0,0,0.1,0,0.1c0,3.2,2.3,6,5.3,6.6
				c-0.6,0.2-1.1,0.2-1.7,0.2c-0.4,0-0.8,0-1.2-0.1c0.8,2.7,3.3,4.6,6.2,4.7c-2.3,1.8-5.1,2.9-8.2,2.9c-0.5,0-1.1,0-1.6-0.1
				c2.9,1.9,6.4,3,10.2,3c12.2,0,18.9-10.2,18.9-19.1c0-0.3,0-0.6,0-0.9C-418.2,269.7-417,268.6-416.2,267.2L-416.2,267.2z"/>
		</g>
	</g>
</g>
</svg>
