<?xml version="1.0" encoding="utf-8"?>
<!-- Generator: Adobe Illustrator 18.1.1, SVG Export Plug-In . SVG Version: 6.00 Build 0)  -->
<svg version="1.1" id="Layer_1" xmlns:sketch="http://www.bohemiancoding.com/sketch/ns"
	 xmlns="http://www.w3.org/2000/svg" xmlns:xlink="http://www.w3.org/1999/xlink" x="0px" y="0px" viewBox="-456 258 46 46"
	 enable-background="new -456 258 46 46" xml:space="preserve">
<title>linkedin</title>
<desc>Created with Sketch.</desc>
<g id="Page-1" sketch:type="MSPage">
	<g id="linkedin" sketch:type="MSArtboardGroup">
		<path id="Imported-Layers" sketch:type="MSShapeGroup" fill="#FFFFFF" d="M-449.1,274.5h6.5v21h-6.5V274.5z M-446,271.9
			L-446,271.9c-2.4,0-3.9-1.6-3.9-3.6c0-2.1,1.6-3.6,4-3.6c2.4,0,3.9,1.6,3.9,3.6C-442.1,270.3-443.6,271.9-446,271.9L-446,271.9z
			 M-416.6,295.6h-7.4v-10.9c0-2.8-1.2-4.8-3.7-4.8c-1.9,0-3,1.3-3.5,2.6c-0.2,0.5-0.2,1.1-0.2,1.7v11.4h-7.3c0,0,0.1-19.3,0-21h7.3
			v3.3c0.4-1.4,2.8-3.5,6.5-3.5c4.6,0,8.2,3,8.2,9.5V295.6L-416.6,295.6z"/>
	</g>
</g>
</svg>
