<?xml version="1.0" encoding="UTF-8" standalone="no"?>
<svg width="91px" height="23px" viewBox="0 0 91 23" version="1.1" xmlns="http://www.w3.org/2000/svg" xmlns:xlink="http://www.w3.org/1999/xlink" xmlns:sketch="http://www.bohemiancoding.com/sketch/ns">
    <!-- Generator: Sketch 3.3.1 (12005) - http://www.bohemiancoding.com/sketch -->
    <title>Artboard 1</title>
    <desc>Created with Sketch.</desc>
    <defs></defs>
    <g id="Page-1" stroke="none" stroke-width="1" fill="none" fill-rule="evenodd" sketch:type="MSPage">
        <g id="Artboard-1" sketch:type="MSArtboardGroup" fill="#FFFFFF">
            <g id="logo_linkedin" sketch:type="MSLayerGroup">
                <g id="Page-1" sketch:type="MSShapeGroup">
                    <g id="128">
                        <g id="linkedin">
                            <g id="Page-1">
                                <g id="256">
                                    <g id="linkedin">
                                        <g id="Group">
                                            <path d="M89.817,18.584 C90.09,18.492 90.181,18.4 90.181,18.124 C90.181,17.848 89.999,17.664 89.635,17.664 L88.998,17.664 L88.998,19.228 L89.271,19.228 L89.271,18.584 L89.544,18.584 L89.999,19.228 L90.272,19.228 L89.817,18.584 L89.817,18.584 Z M89.544,18.4 L89.271,18.4 L89.271,17.94 L89.544,17.94 C89.726,17.94 89.908,17.94 89.908,18.216 C89.999,18.4 89.817,18.4 89.544,18.4 L89.544,18.4 L89.544,18.4 Z" id="Shape"></path>
                                            <path d="M89.544,17.02 C88.725,17.02 88.088,17.664 88.088,18.492 C88.088,19.32 88.725,19.964 89.544,19.964 C90.363,19.964 91,19.32 91,18.492 C91,17.664 90.363,17.02 89.544,17.02 L89.544,17.02 L89.544,17.02 Z M89.544,19.78 C88.907,19.78 88.361,19.228 88.361,18.492 C88.361,17.756 88.907,17.204 89.544,17.204 C90.181,17.204 90.727,17.756 90.727,18.492 C90.818,19.228 90.272,19.78 89.544,19.78 L89.544,19.78 L89.544,19.78 Z" id="Shape"></path>
                                            <path d="M3.458,3.864 L0,3.864 L0,19.596 L9.737,19.596 L9.737,16.468 L3.458,16.468 L3.458,3.864 L3.458,3.864 Z" id="Shape"></path>
                                            <ellipse id="Oval" cx="12.922" cy="5.52" rx="1.911" ry="1.932"></ellipse>
                                            <rect id="Rectangle-path" x="11.193" y="8.924" width="3.276" height="10.672"></rect>
                                            <path d="M39.221,8.924 L35.126,8.924 L31.486,13.248 L31.486,3.864 L28.119,3.864 L28.119,19.596 L31.486,19.596 L31.486,14.352 L34.944,19.596 L39.13,19.596 L34.944,13.8 L39.221,8.924 L39.221,8.924 Z" id="Shape"></path>
                                            <path d="M22.568,8.648 C20.93,8.648 19.929,9.476 19.474,10.396 L19.383,10.396 L19.383,8.924 L16.289,8.924 L16.289,19.596 L19.565,19.596 L19.565,14.352 C19.565,12.972 19.838,11.592 21.567,11.592 C23.205,11.592 23.296,13.248 23.296,14.444 L23.296,19.688 L26.572,19.688 L26.572,13.892 C26.481,10.856 25.935,8.648 22.568,8.648 L22.568,8.648 L22.568,8.648 Z" id="Shape"></path>
                                            <path d="M44.408,8.648 C41.132,8.648 38.493,10.856 38.493,14.26 C38.493,17.664 41.132,19.872 44.408,19.872 C46.137,19.872 47.866,19.136 48.867,17.756 L46.592,16.008 C46.046,16.744 45.318,17.296 44.226,17.296 C42.952,17.296 42.042,16.468 41.769,15.272 L49.413,15.272 L49.413,14.168 C49.322,10.764 47.411,8.648 44.408,8.648 L44.408,8.648 L44.408,8.648 Z M41.769,13.064 C41.86,12.052 42.588,11.04 44.135,11.04 C45.318,11.04 46.137,11.96 46.137,13.064 L41.769,13.064 L41.769,13.064 Z" id="Shape"></path>
                                            <path d="M58.513,9.936 L58.513,9.936 C57.694,8.924 56.511,8.464 55.146,8.464 C52.143,8.464 50.323,11.224 50.323,14.168 C50.323,17.388 52.416,19.688 55.51,19.688 C56.966,19.688 58.24,18.768 58.786,18.032 L58.877,18.032 L58.877,19.504 L61.88,19.504 L61.88,3.772 L58.604,3.772 L58.513,9.936 L58.513,9.936 Z M56.147,16.928 C54.509,16.928 53.508,15.824 53.508,14.168 C53.508,12.512 54.509,11.408 56.147,11.408 C57.785,11.408 58.786,12.512 58.786,14.168 C58.786,15.824 57.785,16.928 56.147,16.928 L56.147,16.928 L56.147,16.928 Z" id="Shape"></path>
                                            <path d="M85.54,0.552 L66.703,0.552 C65.793,0.552 65.065,1.288 65.065,2.208 L65.065,21.344 C65.065,22.172 65.793,23 66.703,23 L85.54,23 C86.45,23 87.178,22.264 87.178,21.344 L87.178,2.208 C87.178,1.288 86.45,0.552 85.54,0.552 L85.54,0.552 L85.54,0.552 Z M71.617,19.596 L68.341,19.596 L68.341,8.924 L71.617,8.924 L71.617,19.596 L71.617,19.596 Z M69.979,7.452 C68.978,7.452 68.068,6.624 68.068,5.52 C68.068,4.508 68.887,3.588 69.979,3.588 C70.98,3.588 71.89,4.416 71.89,5.52 C71.89,6.624 71.071,7.452 69.979,7.452 L69.979,7.452 L69.979,7.452 Z M83.902,19.596 L80.626,19.596 L80.626,14.352 C80.626,13.156 80.626,11.5 78.897,11.5 C77.168,11.5 76.895,12.88 76.895,14.26 L76.895,19.504 L73.71,19.504 L73.71,8.924 L76.804,8.924 L76.804,10.396 L76.895,10.396 C77.35,9.568 78.442,8.648 79.989,8.648 C83.265,8.648 83.902,10.856 83.902,13.708 L83.902,19.596 L83.902,19.596 Z" id="Shape"></path>
                                        </g>
                                    </g>
                                </g>
                            </g>
                        </g>
                    </g>
                </g>
            </g>
        </g>
    </g>
</svg>