<svg xmlns="http://www.w3.org/2000/svg"><symbol id="icon-facebook" viewBox="-456 258 46 46"><title>Facebook</title><path fill="currentColor" d="M-425.6 273.8h-4.9v-3.2c0-1.2.8-1.5 1.4-1.5h3.5v-5.3h-4.8c-5.3 0-6.5 4-6.5 6.5v3.6h-3.1v5.5h3.1v15.5h6.4v-15.5h4.3l.6-5.6z"/></symbol><symbol id="icon-linkedin" viewBox="-456 258 46 46"><title>linkedin</title><path fill="currentColor" d="M-449.1 274.5h6.5v21h-6.5v-21zm3.1-2.6c-2.4 0-3.9-1.6-3.9-3.6 0-2.1 1.6-3.6 4-3.6s3.9 1.6 3.9 3.6c-.1 2-1.6 3.6-4 3.6zm29.4 23.7h-7.4v-10.9c0-2.8-1.2-4.8-3.7-4.8-1.9 0-3 1.3-3.5 2.6-.2.5-.2 1.1-.2 1.7v11.4h-7.3s.1-19.3 0-21h7.3v3.3c.4-1.4 2.8-3.5 6.5-3.5 4.6 0 8.2 3 8.2 9.5v11.7h.1z"/></symbol><symbol id="icon-twitter" viewBox="-456 258 46 46"><title>Twitter</title><path fill="currentColor" d="M-417.2 271.2c-1.2.5-2.5.9-3.8 1.1 1.4-.8 2.4-2.1 2.9-3.7-1.3.8-2.7 1.3-4.2 1.6-1.2-1.3-2.9-2.1-4.8-2.1-3.7 0-6.6 3-6.6 6.7 0 .5.1 1 .2 1.5-5.5-.3-10.4-3-13.7-7-.6 1-.9 2.1-.9 3.4 0 2.3 1.2 4.4 2.9 5.6-1.1 0-2.1-.3-3-.8v.1c0 3.2 2.3 6 5.3 6.6-.6.2-1.1.2-1.7.2-.4 0-.8 0-1.2-.1.8 2.7 3.3 4.6 6.2 4.7-2.3 1.8-5.1 2.9-8.2 2.9-.5 0-1.1 0-1.6-.1 2.9 1.9 6.4 3 10.2 3 12.2 0 18.9-10.2 18.9-19.1v-.9c1.1-1.1 2.3-2.2 3.1-3.6z"/></symbol></svg>