<?xml version="1.0" encoding="utf-8"?>
<!-- Generator: Adobe Illustrator 18.1.1, SVG Export Plug-In . SVG Version: 6.00 Build 0)  -->
<svg version="1.1" id="Layer_1" xmlns="http://www.w3.org/2000/svg" xmlns:xlink="http://www.w3.org/1999/xlink" x="0px" y="0px"
	 viewBox="35.6 21.1 163.6 56" enable-background="new 35.6 21.1 163.6 56" xml:space="preserve">
<path fill="#010101" d="M199.2,69.1c0,5-3.7,8.1-8.6,8.1h-146c-5,0-9-4-9-9v-38c0-5,4-9,9-9h146c5,0,8.6,4,8.6,9V69.1z"/>
<linearGradient id="SVGID_1_" gradientUnits="userSpaceOnUse" x1="147.0954" y1="90.207" x2="147.0954" y2="18.895">
	<stop  offset="0" style="stop-color:#1A1A1A;stop-opacity:0.1"/>
	<stop  offset="0.1235" style="stop-color:#212121;stop-opacity:0.1506"/>
	<stop  offset="0.3085" style="stop-color:#353535;stop-opacity:0.2265"/>
	<stop  offset="0.5321" style="stop-color:#575757;stop-opacity:0.3181"/>
	<stop  offset="0.7834" style="stop-color:#858585;stop-opacity:0.4212"/>
	<stop  offset="1" style="stop-color:#B3B3B3;stop-opacity:0.51"/>
</linearGradient>
<path fill="url(#SVGID_1_)" d="M190.6,21.1H95l36.9,56h58.7c5,0,8.6-3.1,8.6-8.1v-39C199.2,25.2,195.6,21.1,190.6,21.1z"/>
<g>
	<path fill="#FFFFFF" d="M62.3,38.2c1.2-1.4,1.9-3.4,1.7-5.4c-1.7,0.1-3.8,1.2-5,2.6c-1.1,1.2-2,3.3-1.8,5.2
		C59.1,40.7,61.1,39.6,62.3,38.2z"/>
	<g>
		<path fill="#FFFFFF" d="M66.5,50.7c0-4.3,3.5-6.3,3.6-6.4c-2-2.9-5.1-3.3-6.2-3.3c-2.6-0.3-5.1,1.6-6.4,1.6
			c-1.3,0-3.4-1.5-5.6-1.5c-2.8,0-5.5,1.7-6.9,4.2c-3,5.2-0.8,12.8,2.1,17c1.4,2.1,3.1,4.3,5.3,4.3c2.1-0.1,2.9-1.4,5.5-1.4
			c2.6,0,3.3,1.4,5.6,1.3c2.3,0,3.8-2.1,5.1-4.1c1.7-2.3,2.3-4.7,2.3-4.8C71,57.5,66.5,55.8,66.5,50.7z"/>
		<g>
			<path fill="#FFFFFF" d="M97.6,66.1h-3L92.9,61h-5.7l-1.6,5.2h-2.9l5.7-17.6h3.5L97.6,66.1z M92.4,58.8l-1.5-4.6
				c-0.2-0.5-0.5-1.6-0.9-3.3H90c-0.2,0.7-0.5,1.9-0.8,3.3l-1.5,4.6H92.4z"/>
			<path fill="#FFFFFF" d="M112.1,59.7c0,2.2-0.6,3.9-1.8,5.1c-1,1.1-2.4,1.7-3.9,1.7c-1.7,0-2.9-0.6-3.6-1.8v6.6H100V57.6
				c0-1.4,0-2.7-0.1-4.2h2.5l0.2,2h0.1c0.9-1.5,2.4-2.3,4.3-2.3c1.5,0,2.7,0.6,3.7,1.8C111.6,56.2,112.1,57.7,112.1,59.7z
				 M109.2,59.8c0-1.2-0.3-2.2-0.8-3.1c-0.6-0.8-1.4-1.3-2.4-1.3c-0.7,0-1.3,0.2-1.9,0.7c-0.6,0.5-0.9,1.1-1.1,1.8
				c-0.1,0.3-0.1,0.6-0.1,0.9v2.1c0,0.9,0.3,1.7,0.8,2.3c0.6,0.6,1.3,1,2.2,1c1.1,0,1.9-0.4,2.5-1.2
				C108.9,62.2,109.2,61.1,109.2,59.8z"/>
			<path fill="#FFFFFF" d="M126.7,59.7c0,2.2-0.6,3.9-1.8,5.1c-1,1.1-2.4,1.7-3.9,1.7c-1.7,0-2.9-0.6-3.6-1.8v6.6h-2.8V57.6
				c0-1.4,0-2.7-0.1-4.2h2.5l0.2,2h0.1c0.9-1.5,2.4-2.3,4.3-2.3c1.5,0,2.7,0.6,3.7,1.8C126.2,56.2,126.7,57.7,126.7,59.7z
				 M123.8,59.8c0-1.2-0.3-2.2-0.8-3.1c-0.6-0.8-1.4-1.3-2.4-1.3c-0.7,0-1.3,0.2-1.9,0.7c-0.6,0.5-0.9,1.1-1.1,1.8
				c-0.1,0.3-0.1,0.6-0.1,0.9v2.1c0,0.9,0.3,1.7,0.8,2.3c0.6,0.6,1.3,1,2.2,1c1.1,0,1.9-0.4,2.5-1.2
				C123.5,62.2,123.8,61.1,123.8,59.8z"/>
			<path fill="#FFFFFF" d="M142.9,61.2c0,1.5-0.5,2.7-1.6,3.6c-1.1,1-2.7,1.5-4.8,1.5c-1.9,0-3.4-0.4-4.5-1.1l0.7-2.3
				c1.2,0.7,2.6,1.1,4.1,1.1c1.1,0,1.9-0.2,2.5-0.7c0.6-0.5,0.9-1.1,0.9-1.9c0-0.7-0.2-1.3-0.7-1.8c-0.5-0.5-1.3-0.9-2.4-1.4
				c-3.1-1.1-4.6-2.8-4.6-5c0-1.4,0.5-2.6,1.6-3.5c1.1-0.9,2.5-1.4,4.3-1.4c1.6,0,2.9,0.3,4,0.8l-0.7,2.3c-1-0.5-2.1-0.8-3.4-0.8
				c-1,0-1.8,0.2-2.3,0.7c-0.5,0.4-0.7,1-0.7,1.6c0,0.7,0.3,1.3,0.8,1.7c0.5,0.4,1.3,0.9,2.6,1.4c1.5,0.6,2.6,1.3,3.3,2.1
				C142.6,59,142.9,60,142.9,61.2z"/>
			<path fill="#FFFFFF" d="M152.3,55.6h-3.1v6.2c0,1.6,0.5,2.3,1.6,2.3c0.5,0,0.9,0,1.3-0.1l0.1,2.1c-0.6,0.2-1.3,0.3-2.2,0.3
				c-1.1,0-2-0.3-2.6-1c-0.6-0.7-0.9-1.8-0.9-3.4v-6.4h-1.8v-2.1h1.8v-2.3l2.8-0.8v3.2h3.1L152.3,55.6z"/>
			<path fill="#FFFFFF" d="M166.2,59.7c0,1.9-0.6,3.5-1.7,4.8c-1.2,1.3-2.7,1.9-4.6,1.9c-1.9,0-3.3-0.6-4.4-1.8
				c-1.1-1.2-1.7-2.8-1.7-4.7c0-2,0.6-3.6,1.7-4.8c1.1-1.3,2.7-1.9,4.6-1.9c1.9,0,3.4,0.6,4.5,1.9C165.7,56.3,166.2,57.8,166.2,59.7
				z M163.3,59.8c0-1.2-0.3-2.2-0.8-3c-0.6-1-1.4-1.5-2.5-1.5c-1.1,0-2,0.5-2.6,1.5c-0.5,0.8-0.8,1.8-0.8,3c0,1.2,0.3,2.2,0.8,3
				c0.6,1,1.5,1.5,2.6,1.5c1.1,0,1.9-0.5,2.5-1.5C163.1,61.9,163.3,60.9,163.3,59.8z"/>
			<path fill="#FFFFFF" d="M175.4,56c-0.3-0.1-0.6-0.1-0.9-0.1c-1,0-1.8,0.4-2.3,1.1c-0.5,0.7-0.7,1.5-0.7,2.5v6.6h-2.8v-8.7
				c0-1.5,0-2.8-0.1-4h2.5l0.1,2.4h0.1c0.3-0.8,0.8-1.5,1.4-2c0.6-0.5,1.3-0.7,2-0.7c0.3,0,0.5,0,0.7,0.1L175.4,56L175.4,56z"/>
			<path fill="#FFFFFF" d="M188,59.2c0,0.5,0,0.9-0.1,1.3h-8.4c0,1.3,0.4,2.2,1.2,2.9c0.7,0.6,1.6,0.9,2.8,0.9
				c1.3,0,2.4-0.2,3.4-0.6l0.4,2c-1.2,0.5-2.6,0.8-4.2,0.8c-2,0-3.5-0.6-4.6-1.7c-1.1-1.2-1.7-2.7-1.7-4.7c0-1.9,0.5-3.5,1.6-4.8
				c1.1-1.4,2.6-2,4.4-2c1.8,0,3.2,0.7,4.1,2C187.6,56.3,188,57.6,188,59.2z M185.3,58.5c0-0.8-0.2-1.6-0.5-2.2
				c-0.5-0.8-1.2-1.2-2.2-1.2c-0.9,0-1.7,0.4-2.2,1.1c-0.5,0.6-0.7,1.3-0.8,2.2L185.3,58.5L185.3,58.5z"/>
		</g>
		<g>
			<path fill="#FFFFFF" d="M91.1,42.3h-1.5l-0.8-2.5H86l-0.8,2.5h-1.4l2.8-8.6h1.7L91.1,42.3z M88.6,38.7l-0.7-2.3
				c-0.1-0.2-0.2-0.8-0.4-1.6h0c-0.1,0.4-0.2,0.9-0.4,1.6l-0.7,2.3H88.6z"/>
			<path fill="#FFFFFF" d="M98,36.1l-2.4,6.2h-1.3L92,36.1h1.5l1.1,3.3c0.2,0.6,0.3,1.1,0.4,1.6h0c0.1-0.4,0.3-1,0.4-1.6l1.1-3.3H98
				z"/>
			<path fill="#FFFFFF" d="M103,42.3l-0.1-0.7h0c-0.4,0.6-1,0.9-1.8,0.9c-1.1,0-1.9-0.8-1.9-1.8c0-1.5,1.3-2.3,3.6-2.3v-0.1
				c0-0.8-0.4-1.2-1.3-1.2c-0.6,0-1.2,0.2-1.6,0.5l-0.3-0.9c0.6-0.4,1.3-0.5,2.1-0.5c1.6,0,2.4,0.9,2.4,2.6v2.3c0,0.6,0,1.1,0.1,1.5
				L103,42.3L103,42.3z M102.9,39.2c-1.5,0-2.3,0.4-2.3,1.3c0,0.7,0.4,1,0.9,1c0.7,0,1.4-0.5,1.4-1.3V39.2z"/>
			<path fill="#FFFFFF" d="M107.3,35c-0.5,0-0.8-0.4-0.8-0.8c0-0.5,0.4-0.8,0.8-0.8c0.5,0,0.9,0.3,0.8,0.8
				C108.2,34.7,107.8,35,107.3,35z M108,42.3h-1.4v-6.2h1.4V42.3z"/>
			<path fill="#FFFFFF" d="M111.8,42.3h-1.4v-9.1h1.4V42.3z"/>
			<path fill="#FFFFFF" d="M117.7,42.3l-0.1-0.7h0c-0.4,0.6-1,0.9-1.8,0.9c-1.1,0-1.9-0.8-1.9-1.8c0-1.5,1.3-2.3,3.6-2.3v-0.1
				c0-0.8-0.4-1.2-1.3-1.2c-0.6,0-1.2,0.2-1.6,0.5l-0.3-0.9c0.6-0.4,1.3-0.5,2.1-0.5c1.6,0,2.4,0.9,2.4,2.6v2.3c0,0.6,0,1.1,0.1,1.5
				H117.7z M117.5,39.2c-1.5,0-2.3,0.4-2.3,1.3c0,0.7,0.4,1,0.9,1c0.7,0,1.4-0.5,1.4-1.3V39.2z"/>
			<path fill="#FFFFFF" d="M124.5,42.4c-0.9,0-1.5-0.4-2-1.1h0l-0.1,1h-1.2c0-0.5,0.1-1.1,0.1-1.7v-7.4h1.4V37h0c0.4-0.7,1.1-1,2-1
				c1.5,0,2.6,1.3,2.6,3.2C127.2,41,126.1,42.4,124.5,42.4z M124.2,37c-0.8,0-1.5,0.7-1.5,1.7v1.1c0,0.9,0.7,1.6,1.5,1.6
				c1,0,1.7-0.8,1.7-2.2C125.8,37.9,125.2,37,124.2,37z"/>
			<path fill="#FFFFFF" d="M130.7,42.3h-1.4v-9.1h1.4V42.3z"/>
			<path fill="#FFFFFF" d="M138.2,39.5H134c0,1.2,0.8,1.8,2,1.8c0.6,0,1.2-0.1,1.7-0.3l0.2,1c-0.6,0.3-1.3,0.4-2.1,0.4
				c-1.9,0-3.1-1.2-3.1-3.1c0-1.9,1.2-3.3,2.9-3.3c1.6,0,2.6,1.2,2.6,3C138.2,39.1,138.2,39.3,138.2,39.5z M136.9,38.5
				c0-1-0.5-1.6-1.4-1.6c-0.8,0-1.4,0.7-1.5,1.6H136.9z"/>
			<path fill="#FFFFFF" d="M146.6,42.4c-1.8,0-3-1.4-3-3.2c0-1.9,1.2-3.3,3.1-3.3c1.8,0,3,1.3,3,3.2
				C149.7,41.1,148.4,42.4,146.6,42.4z M146.6,37c-1,0-1.6,0.9-1.6,2.2c0,1.3,0.7,2.2,1.6,2.2s1.6-1,1.6-2.2
				C148.2,37.9,147.6,37,146.6,37z"/>
			<path fill="#FFFFFF" d="M157.1,42.3h-1.4v-3.6c0-1.1-0.4-1.7-1.3-1.7c-0.8,0-1.4,0.7-1.4,1.5v3.7h-1.4v-4.4c0-0.6,0-1.1-0.1-1.8
				h1.2l0.1,1h0c0.4-0.7,1.1-1.1,2-1.1c1.3,0,2.2,1,2.2,2.6L157.1,42.3L157.1,42.3z"/>
			<path fill="#FFFFFF" d="M166.2,37.1h-1.5v3c0,0.8,0.3,1.2,0.8,1.2c0.2,0,0.5,0,0.6-0.1l0,1.1c-0.3,0.1-0.6,0.2-1.1,0.2
				c-1.1,0-1.7-0.6-1.7-2.2v-3.1h-0.9v-1h0.9v-1.1l1.4-0.4v1.5h1.5V37.1z"/>
			<path fill="#FFFFFF" d="M173.5,42.3h-1.4v-3.5c0-1.1-0.4-1.7-1.3-1.7c-0.7,0-1.4,0.5-1.4,1.5v3.8h-1.4v-9.1h1.4V37h0
				c0.4-0.7,1.1-1,1.9-1c1.3,0,2.1,1,2.1,2.7V42.3z"/>
			<path fill="#FFFFFF" d="M180.6,39.5h-4.2c0,1.2,0.8,1.8,2,1.8c0.6,0,1.2-0.1,1.7-0.3l0.2,1c-0.6,0.3-1.3,0.4-2.1,0.4
				c-1.9,0-3.1-1.2-3.1-3.1c0-1.9,1.2-3.3,2.9-3.3c1.6,0,2.6,1.2,2.6,3C180.6,39.1,180.6,39.3,180.6,39.5z M179.3,38.5
				c0-1-0.5-1.6-1.4-1.6c-0.8,0-1.4,0.7-1.5,1.6H179.3z"/>
		</g>
	</g>
</g>
</svg>
