<?xml version="1.0" encoding="utf-8"?>
<!-- Generator: Adobe Illustrator 18.1.1, SVG Export Plug-In . SVG Version: 6.00 Build 0)  -->
<svg version="1.1" id="Layer_1" xmlns="http://www.w3.org/2000/svg" xmlns:xlink="http://www.w3.org/1999/xlink" x="0px" y="0px"
	 viewBox="35.6 21.1 163.6 56" enable-background="new 35.6 21.1 163.6 56" xml:space="preserve">
<path fill="#010101" d="M199.2,69.1c0,5-3.7,8.1-8.6,8.1h-146c-5,0-9-4-9-9v-38c0-5,4-9,9-9h146c5,0,8.6,4,8.6,9V69.1z"/>
<g>
	<g>
		<path fill="#FFFFFF" d="M147.4,61.3l-1.2,1.2c-0.3,0.2-0.6,0.3-0.8,0.5c-0.9,0.4-1.7,0.5-2.5,0.5c-0.8,0-2.1-0.1-3.4-1
			c-1.8-1.3-2.6-3.5-2.6-5.4c0-4,3.2-5.9,5.9-5.9c0.9,0,1.9,0.2,2.6,0.7c1.3,0.8,1.6,2,1.8,2.5l-6,2.4l-2,0.2
			c0.6,3.3,2.9,5.2,5.3,5.2C145.6,62.1,146.5,61.7,147.4,61.3C147.4,61.3,147.5,61.2,147.4,61.3z M143.8,54.8
			c0.5-0.2,0.7-0.3,0.7-0.7c0-1-1.2-2.2-2.5-2.2c-1,0-3,0.8-3,3.6c0,0.4,0.1,0.9,0.1,1.4L143.8,54.8z"/>
		<path fill="#FFFFFF" d="M134.8,61.1c0,1,0.2,1.2,1,1.2c0.4,0.1,0.9,0.1,1.3,0.1l-1,0.6h-4.5c0.6-0.8,0.7-0.8,0.7-1.4v-0.6l0-15.3
			h-2l1.9-0.9h3.7c-0.8,0.5-1,0.7-1.1,1.6L134.8,61.1z"/>
		<path fill="#FFFFFF" d="M127.8,52.4c0.6,0.5,1.8,1.5,1.8,3.5c0,1.9-1.1,2.8-2.2,3.6c-0.3,0.3-0.7,0.7-0.7,1.3
			c0,0.6,0.4,0.9,0.7,1.1l0.9,0.7c1.1,1,2.2,1.8,2.2,3.6c0,2.4-2.3,4.9-6.8,4.9c-3.7,0-5.5-1.8-5.5-3.7c0-0.9,0.5-2.2,2-3.1
			c1.6-1,3.8-1.1,4.9-1.2c-0.4-0.5-0.8-1-0.8-1.7c0-0.4,0.1-0.7,0.3-1c-0.3,0-0.6,0.1-0.8,0.1c-2.7,0-4.3-2-4.3-4
			c0-1.2,0.5-2.5,1.6-3.4c1.5-1.2,3.2-1.4,4.6-1.4h5.3l-1.6,0.9L127.8,52.4L127.8,52.4z M125.9,63.8c-0.2,0-0.3,0-0.6,0
			c-0.2,0-1.6,0.1-2.7,0.4c-0.6,0.2-2.2,0.8-2.2,2.6c0,1.8,1.8,3.1,4.5,3.1c2.5,0,3.8-1.2,3.8-2.8C128.7,65.8,127.9,65.2,125.9,63.8
			z M126.7,58.9c0.6-0.6,0.6-1.4,0.6-1.9c0-1.8-1.1-4.7-3.2-4.7c-0.7,0-1.4,0.3-1.8,0.9c-0.4,0.5-0.6,1.2-0.6,1.9
			c0,1.7,1,4.6,3.2,4.6C125.6,59.6,126.3,59.3,126.7,58.9z"/>
		<path fill="#FFFFFF" d="M111.8,63.4c-4.1,0-6.3-3.2-6.3-6.1c0-3.4,2.7-6.2,6.7-6.2c3.8,0,6.1,3,6.1,6.1
			C118.4,60.2,116,63.4,111.8,63.4z M115.1,61.3c0.6-0.8,0.8-1.8,0.8-2.8c0-2.3-1.1-6.6-4.3-6.6c-0.8,0-1.7,0.3-2.3,0.9
			c-1,0.9-1.2,2-1.2,3.1c0,2.5,1.3,6.7,4.4,6.7C113.4,62.6,114.5,62.1,115.1,61.3z"/>
		<path fill="#FFFFFF" d="M98.2,63.4c-4.1,0-6.3-3.2-6.3-6.1c0-3.4,2.7-6.2,6.7-6.2c3.8,0,6.1,3,6.1,6.1
			C104.7,60.2,102.4,63.4,98.2,63.4z M101.4,61.3c0.6-0.8,0.8-1.8,0.8-2.8c0-2.3-1.1-6.6-4.3-6.6c-0.8,0-1.7,0.3-2.3,0.9
			c-1,0.9-1.2,2-1.2,3.1c0,2.5,1.3,6.7,4.4,6.7C99.8,62.6,100.8,62.1,101.4,61.3z"/>
		<path fill="#FFFFFF" d="M90.3,62.5l-3.4,0.8c-1.4,0.2-2.6,0.4-4,0.4c-6.6,0-9.2-4.9-9.2-8.7c0-4.7,3.6-9,9.7-9
			c1.3,0,2.5,0.2,3.7,0.5c1.8,0.5,2.6,1.1,3.2,1.5l-2,1.9l-0.8,0.2l0.6-1c-0.8-0.8-2.3-2.3-5.2-2.3c-3.8,0-6.7,2.9-6.7,7.1
			c0,4.5,3.3,8.8,8.5,8.8c1.5,0,2.3-0.3,3.1-0.6v-3.9l-3.6,0.2l1.9-1h5.1L90.6,58c-0.2,0.1-0.2,0.2-0.2,0.4c0,0.2,0,0.9,0,1.2
			L90.3,62.5L90.3,62.5L90.3,62.5z"/>
	</g>
	<g>
		<path fill="#FFFFFF" d="M154.8,61.5V68h-1.3V51.3h1.3v1.9c0.8-1.2,2.4-2.2,4.2-2.2c3.2,0,5.4,2.4,5.4,6.3c0,3.8-2.2,6.3-5.4,6.3
			C157.3,63.7,155.8,62.8,154.8,61.5z M163,57.4c0-2.9-1.5-5.1-4.2-5.1c-1.7,0-3.3,1.3-4,2.5V60c0.7,1.1,2.3,2.5,4,2.5
			C161.5,62.5,163,60.3,163,57.4z"/>
		<path fill="#FFFFFF" d="M166.2,63.4V46.8h1.3v16.6H166.2z"/>
		<path fill="#FFFFFF" d="M182.1,66.9c0.3,0.1,0.8,0.2,1.1,0.2c0.8,0,1.3-0.3,1.8-1.5l0.9-2.1l-5.1-12.2h1.4l4.4,10.5l4.3-10.5h1.5
			L186.2,66c-0.6,1.5-1.7,2.2-3.1,2.2c-0.4,0-1-0.1-1.3-0.2L182.1,66.9z"/>
		<path fill="#FFFFFF" d="M178.3,63.4c-0.1-0.4-0.2-0.8-0.2-1.1c0-0.3-0.1-0.6-0.1-0.9c-0.4,0.7-1.1,1.2-1.9,1.6
			c-0.8,0.4-1.6,0.6-2.6,0.6c-1.3,0-2.2-0.3-2.9-0.9c-0.7-0.6-1.1-1.5-1.1-2.6c0-1.1,0.5-2,1.5-2.6c1-0.7,2.3-1,4-1h3V55
			c0-0.9-0.3-1.5-0.9-2c-0.6-0.5-1.4-0.7-2.5-0.7c-1,0-1.8,0.2-2.4,0.7c-0.6,0.5-0.9,1-0.9,1.7H170l0-0.1c0-0.9,0.4-1.7,1.3-2.4
			c0.9-0.7,2-1,3.5-1c1.4,0,2.6,0.3,3.4,1c0.9,0.7,1.3,1.6,1.3,2.9v5.9c0,0.4,0,0.8,0.1,1.2c0.1,0.4,0.1,0.8,0.3,1.2L178.3,63.4
			L178.3,63.4z M173.6,62.4c1.1,0,1.9-0.2,2.7-0.7c0.8-0.5,1.4-1.1,1.6-1.9v-2.3h-3c-1.2,0-2.1,0.3-2.9,0.8
			c-0.8,0.5-1.1,1.1-1.1,1.9c0,0.7,0.2,1.2,0.7,1.7C172.1,62.2,172.8,62.4,173.6,62.4z"/>
	</g>
</g>
<g>
	<g>
		<path fill="#FFFFFF" d="M73.7,33.1c0-2.6,1.9-4.2,4.3-4.2c1.6,0,2.6,0.8,3.3,1.7l-1.2,0.7c-0.4-0.6-1.2-1.1-2.1-1.1
			c-1.6,0-2.8,1.2-2.8,2.9c0,1.7,1.2,2.9,2.8,2.9c0.8,0,1.6-0.4,1.9-0.7V34h-2.4v-1.3h3.8v3c-0.8,0.9-1.9,1.5-3.3,1.5
			C75.6,37.3,73.7,35.6,73.7,33.1z"/>
		<path fill="#FFFFFF" d="M83.1,37.2V29h5.6v1.3h-4.1v2.1h4.1v1.3h-4.1v2.3h4.1v1.3L83.1,37.2L83.1,37.2z"/>
		<path fill="#FFFFFF" d="M92.6,37.2v-6.9h-2.5V29h6.3v1.3H94v6.9H92.6z"/>
		<path fill="#FFFFFF" d="M101.5,37.2V29h1.4v8.1H101.5z"/>
		<path fill="#FFFFFF" d="M106.8,37.2v-6.9h-2.5V29h6.3v1.3h-2.5v6.9H106.8z"/>
		<path fill="#FFFFFF" d="M115.3,33.1c0-2.4,1.7-4.2,4.2-4.2c2.4,0,4.2,1.8,4.2,4.2s-1.7,4.2-4.2,4.2
			C117.1,37.3,115.3,35.5,115.3,33.1z M122.2,33.1c0-1.7-1.1-2.9-2.7-2.9c-1.6,0-2.7,1.3-2.7,2.9c0,1.7,1,2.9,2.7,2.9
			C121.1,36,122.2,34.8,122.2,33.1z"/>
		<path fill="#FFFFFF" d="M131,37.2l-4.2-5.8v5.8h-1.4V29h1.5l4.2,5.6V29h1.4v8.1H131z"/>
	</g>
</g>
<g>
	<polygon fill="none" points="56.7,56.7 60.9,52.5 60.9,52.5 56.7,56.7 43.4,43.4 43.4,43.4 56.7,56.7 43.4,70 43.4,70 56.7,56.7 
		60.9,60.9 60.9,60.9 	"/>
	
		<linearGradient id="SVGID_1_" gradientUnits="userSpaceOnUse" x1="368.2041" y1="-850.5285" x2="350.6385" y2="-861.5217" gradientTransform="matrix(0.7071 0.7071 -0.7071 0.7071 -807.8588 396.664)">
		<stop  offset="0" style="stop-color:#D7E69D"/>
		<stop  offset="0.4456" style="stop-color:#94C4AA"/>
		<stop  offset="1" style="stop-color:#01A4B6"/>
	</linearGradient>
	<path fill="url(#SVGID_1_)" d="M60.9,52.5l-16.2-8.9c-0.5-0.3-0.9-0.3-1.2-0.2l13.3,13.3L60.9,52.5z"/>
	
		<linearGradient id="SVGID_2_" gradientUnits="userSpaceOnUse" x1="357.9929" y1="-859.9193" x2="380.7662" y2="-853.966" gradientTransform="matrix(0.7071 0.7071 -0.7071 0.7071 -807.8588 396.664)">
		<stop  offset="0" style="stop-color:#ED277B"/>
		<stop  offset="1.920000e-02" style="stop-color:#EE2F7C"/>
		<stop  offset="0.7039" style="stop-color:#F7BD81"/>
		<stop  offset="1" style="stop-color:#FEEB74"/>
	</linearGradient>
	<path fill="url(#SVGID_2_)" d="M60.9,60.9l5.5-3.1c1.1-0.6,1.1-1.6,0-2.2l-5.6-3.1l-4.2,4.2L60.9,60.9z"/>
	
		<linearGradient id="SVGID_3_" gradientUnits="userSpaceOnUse" x1="370.7047" y1="-842.1902" x2="346.0085" y2="-856.7201" gradientTransform="matrix(0.7071 0.7071 -0.7071 0.7071 -807.8588 396.664)">
		<stop  offset="0" style="stop-color:#89CFBD"/>
		<stop  offset="9.070000e-02" style="stop-color:#7DBEBB"/>
		<stop  offset="0.5396" style="stop-color:#457CAC"/>
		<stop  offset="0.8523" style="stop-color:#1C5AA2"/>
		<stop  offset="1" style="stop-color:#084D9F"/>
	</linearGradient>
	<path fill="url(#SVGID_3_)" d="M43.4,43.4c-0.5,0.2-0.8,0.7-0.8,1.4l0,23.8c0,0.7,0.3,1.2,0.8,1.4l13.3-13.3L43.4,43.4z"/>
	
		<linearGradient id="SVGID_4_" gradientUnits="userSpaceOnUse" x1="379.6721" y1="-853.7285" x2="364.4644" y2="-833.693" gradientTransform="matrix(0.7071 0.7071 -0.7071 0.7071 -807.8588 396.664)">
		<stop  offset="0" style="stop-color:#F04A2B"/>
		<stop  offset="0.4704" style="stop-color:#B54F6B"/>
		<stop  offset="0.8353" style="stop-color:#8B5191"/>
		<stop  offset="1" style="stop-color:#7851A1"/>
	</linearGradient>
	<path fill="url(#SVGID_4_)" d="M43.4,70c0.3,0.1,0.8,0.1,1.3-0.2l16.3-8.9l-4.2-4.2L43.4,70z"/>
</g>
<linearGradient id="SVGID_5_" gradientUnits="userSpaceOnUse" x1="147.0954" y1="90.207" x2="147.0954" y2="18.895">
	<stop  offset="0" style="stop-color:#1A1A1A;stop-opacity:0.1"/>
	<stop  offset="0.1235" style="stop-color:#212121;stop-opacity:0.1506"/>
	<stop  offset="0.3085" style="stop-color:#353535;stop-opacity:0.2265"/>
	<stop  offset="0.5321" style="stop-color:#575757;stop-opacity:0.3181"/>
	<stop  offset="0.7834" style="stop-color:#858585;stop-opacity:0.4212"/>
	<stop  offset="1" style="stop-color:#B3B3B3;stop-opacity:0.51"/>
</linearGradient>
<path fill="url(#SVGID_5_)" d="M190.6,21.1H95l36.9,56h58.7c5,0,8.6-3.1,8.6-8.1v-39C199.2,25.2,195.6,21.1,190.6,21.1z"/>
</svg>
